REM DIRINDEX 1\2\4\8,1\2\4\9,1\2\4\10,1\2\5\11,1\2\5\12,1\2\5\13,1\2\5\14,1\2\5\15,1\3\6\16,1\3\6\17,1\3\6\18,1\3\7\19,1\3\7\20,1\3\7\21,1\3\7\22,1\3\7\23
REM DIRNAME "folder01","folder02","folder03","folder04","folder05","folder06","folder07","folder08","folder09","folder10","folder11","folder12","folder13","folder14","folder15","folder16","folder17","folder18","folder19","folder20","folder21","folder22","folder23"
TITLE ""
FILE "LR_black_phrase_S01.mp3" MP3
  TRACK 01 AUDIO
    TITLE "0:"
    INDEX 01 00:00:00
  TRACK 02 AUDIO
    TITLE "19:cjc171_15001"
    INDEX 01 00:00:14
  TRACK 03 AUDIO
    TITLE "0:"
    INDEX 01 00:01:18
  TRACK 04 AUDIO
    TITLE "20:cjc171_15002"
    INDEX 01 00:01:57
  TRACK 05 AUDIO
    TITLE "0:"
    INDEX 01 00:03:09
  TRACK 06 AUDIO
    TITLE "21:cjc171_15003"
    INDEX 01 00:04:08
  TRACK 07 AUDIO
    TITLE "0:"
    INDEX 01 00:05:66
  TRACK 08 AUDIO
    TITLE "22:cjc171_15004"
    INDEX 01 00:06:32
  TRACK 09 AUDIO
    TITLE "0:"
    INDEX 01 00:08:22
  TRACK 10 AUDIO
    TITLE "23:cjc171_15005"
    INDEX 01 00:08:53
  TRACK 11 AUDIO
    TITLE "0:"
    INDEX 01 00:10:44
  TRACK 12 AUDIO
    TITLE "19:cjc171_15006"
    INDEX 01 00:11:47
  TRACK 13 AUDIO
    TITLE "0:"
    INDEX 01 00:12:62
  TRACK 14 AUDIO
    TITLE "20:cjc171_15007"
    INDEX 01 00:13:27
  TRACK 15 AUDIO
    TITLE "0:"
    INDEX 01 00:16:09
  TRACK 16 AUDIO
    TITLE "21:cjc171_15008"
    INDEX 01 00:17:07
  TRACK 17 AUDIO
    TITLE "0:"
    INDEX 01 00:18:75
  TRACK 18 AUDIO
    TITLE "22:cjc171_15009"
    INDEX 01 00:19:37
  TRACK 19 AUDIO
    TITLE "0:"
    INDEX 01 00:21:18
  TRACK 20 AUDIO
    TITLE "23:cjc171_15010"
    INDEX 01 00:21:50
  TRACK 21 AUDIO
    TITLE "0:"
    INDEX 01 00:23:29
  TRACK 22 AUDIO
    TITLE "19:cjc171_15011"
    INDEX 01 00:24:32
  TRACK 23 AUDIO
    TITLE "0:"
    INDEX 01 00:25:69
  TRACK 24 AUDIO
    TITLE "20:cjc171_15012"
    INDEX 01 00:26:29
  TRACK 25 AUDIO
    TITLE "0:"
    INDEX 01 00:28:14
  TRACK 26 AUDIO
    TITLE "21:cjc171_15013"
    INDEX 01 00:29:16
  TRACK 27 AUDIO
    TITLE "0:"
    INDEX 01 00:31:28
  TRACK 28 AUDIO
    TITLE "22:cjc171_15014"
    INDEX 01 00:31:70
  TRACK 29 AUDIO
    TITLE "0:"
    INDEX 01 00:34:05
  TRACK 30 AUDIO
    TITLE "23:cjc171_15015"
    INDEX 01 00:34:31
  TRACK 31 AUDIO
    TITLE "0:"
    INDEX 01 00:36:37
  TRACK 32 AUDIO
    TITLE "19:cjc171_15016"
    INDEX 01 00:37:37
  TRACK 33 AUDIO
    TITLE "0:"
    INDEX 01 00:38:54
  TRACK 34 AUDIO
    TITLE "20:cjc171_15017"
    INDEX 01 00:39:18
  TRACK 35 AUDIO
    TITLE "0:"
    INDEX 01 00:40:67
  TRACK 36 AUDIO
    TITLE "21:cjc171_15018"
    INDEX 01 00:41:68
  TRACK 37 AUDIO
    TITLE "0:"
    INDEX 01 00:44:66
  TRACK 38 AUDIO
    TITLE "22:cjc171_15019"
    INDEX 01 00:45:34
  TRACK 39 AUDIO
    TITLE "0:"
    INDEX 01 00:47:47
  TRACK 40 AUDIO
    TITLE "23:cjc171_15020"
    INDEX 01 00:48:03
  TRACK 41 AUDIO
    TITLE "0:"
    INDEX 01 00:50:18
  TRACK 42 AUDIO
    TITLE "19:cjc171_15021"
    INDEX 01 00:51:21
  TRACK 43 AUDIO
    TITLE "0:"
    INDEX 01 00:52:40
  TRACK 44 AUDIO
    TITLE "20:cjc171_15022"
    INDEX 01 00:53:07
  TRACK 45 AUDIO
    TITLE "0:"
    INDEX 01 00:54:45
  TRACK 46 AUDIO
    TITLE "21:cjc171_15023"
    INDEX 01 00:55:37
  TRACK 47 AUDIO
    TITLE "0:"
    INDEX 01 00:57:34
  TRACK 48 AUDIO
    TITLE "22:cjc171_15024"
    INDEX 01 00:57:71
  TRACK 49 AUDIO
    TITLE "0:"
    INDEX 01 01:00:03
  TRACK 50 AUDIO
    TITLE "23:cjc171_15025"
    INDEX 01 01:00:32
  TRACK 51 AUDIO
    TITLE "0:"
    INDEX 01 01:02:37
  TRACK 52 AUDIO
    TITLE "19:cjc171_15026"
    INDEX 01 01:03:42
  TRACK 53 AUDIO
    TITLE "0:"
    INDEX 01 01:04:55
  TRACK 54 AUDIO
    TITLE "20:cjc171_15027"
    INDEX 01 01:05:22
  TRACK 55 AUDIO
    TITLE "0:"
    INDEX 01 01:08:18
  TRACK 56 AUDIO
    TITLE "21:cjc171_15028"
    INDEX 01 01:09:17
  TRACK 57 AUDIO
    TITLE "0:"
    INDEX 01 01:11:44
  TRACK 58 AUDIO
    TITLE "22:cjc171_15029"
    INDEX 01 01:12:10
  TRACK 59 AUDIO
    TITLE "0:"
    INDEX 01 01:14:17
  TRACK 60 AUDIO
    TITLE "23:cjc171_15030"
    INDEX 01 01:14:48
  TRACK 61 AUDIO
    TITLE "0:"
    INDEX 01 01:16:55
  TRACK 62 AUDIO
    TITLE "19:cjc171_15031"
    INDEX 01 01:17:50
  TRACK 63 AUDIO
    TITLE "0:"
    INDEX 01 01:19:04
  TRACK 64 AUDIO
    TITLE "20:cjc171_15032"
    INDEX 01 01:19:45
  TRACK 65 AUDIO
    TITLE "0:"
    INDEX 01 01:21:01
  TRACK 66 AUDIO
    TITLE "21:cjc171_15033"
    INDEX 01 01:21:75
  TRACK 67 AUDIO
    TITLE "0:"
    INDEX 01 01:24:01
  TRACK 68 AUDIO
    TITLE "22:cjc171_15034"
    INDEX 01 01:24:38
  TRACK 69 AUDIO
    TITLE "0:"
    INDEX 01 01:26:37
  TRACK 70 AUDIO
    TITLE "23:cjc171_15035"
    INDEX 01 01:26:67
  TRACK 71 AUDIO
    TITLE "0:"
    INDEX 01 01:28:66
  TRACK 72 AUDIO
    TITLE "19:cjc171_15036"
    INDEX 01 01:29:69
  TRACK 73 AUDIO
    TITLE "0:"
    INDEX 01 01:31:35
  TRACK 74 AUDIO
    TITLE "20:cjc171_15037"
    INDEX 01 01:31:74
  TRACK 75 AUDIO
    TITLE "0:"
    INDEX 01 01:34:31
  TRACK 76 AUDIO
    TITLE "21:cjc171_15038"
    INDEX 01 01:35:32
  TRACK 77 AUDIO
    TITLE "0:"
    INDEX 01 01:38:62
  TRACK 78 AUDIO
    TITLE "22:cjc171_15039"
    INDEX 01 01:39:24
  TRACK 79 AUDIO
    TITLE "0:"
    INDEX 01 01:42:70
  TRACK 80 AUDIO
    TITLE "23:cjc171_15040"
    INDEX 01 01:43:22
  TRACK 81 AUDIO
    TITLE "0:"
    INDEX 01 01:46:66
  TRACK 82 AUDIO
    TITLE "19:cjc171_15041"
    INDEX 01 01:47:69
  TRACK 83 AUDIO
    TITLE "0:"
    INDEX 01 01:49:15
  TRACK 84 AUDIO
    TITLE "20:cjc171_15042"
    INDEX 01 01:49:58
  TRACK 85 AUDIO
    TITLE "0:"
    INDEX 01 01:51:22
  TRACK 86 AUDIO
    TITLE "21:cjc171_15043"
    INDEX 01 01:52:21
  TRACK 87 AUDIO
    TITLE "0:"
    INDEX 01 01:55:19
  TRACK 88 AUDIO
    TITLE "22:cjc171_15044"
    INDEX 01 01:55:59
  TRACK 89 AUDIO
    TITLE "0:"
    INDEX 01 01:58:67
  TRACK 90 AUDIO
    TITLE "23:cjc171_15045"
    INDEX 01 01:59:21
  TRACK 91 AUDIO
    TITLE "0:"
    INDEX 01 02:02:29
  TRACK 92 AUDIO
    TITLE "19:cjc171_15046"
    INDEX 01 02:03:35
  TRACK 93 AUDIO
    TITLE "0:"
    INDEX 01 02:04:60
  TRACK 94 AUDIO
    TITLE "20:cjc171_15047"
    INDEX 01 02:05:20
  TRACK 95 AUDIO
    TITLE "0:"
    INDEX 01 02:07:44
  TRACK 96 AUDIO
    TITLE "21:cjc171_15048"
    INDEX 01 02:08:44
  TRACK 97 AUDIO
    TITLE "0:"
    INDEX 01 02:11:36
  TRACK 98 AUDIO
    TITLE "22:cjc171_15049"
    INDEX 01 02:12:04
  TRACK 99 AUDIO
    TITLE "0:"
    INDEX 01 02:14:62
  TRACK 100 AUDIO
    TITLE "23:cjc171_15050"
    INDEX 01 02:15:20
  TRACK 101 AUDIO
    TITLE "0:"
    INDEX 01 02:18:01
  TRACK 102 AUDIO
    TITLE "19:cjc171_15051"
    INDEX 01 02:19:08
  TRACK 103 AUDIO
    TITLE "0:"
    INDEX 01 02:20:33
  TRACK 104 AUDIO
    TITLE "20:cjc171_15052"
    INDEX 01 02:20:72
  TRACK 105 AUDIO
    TITLE "0:"
    INDEX 01 02:23:45
  TRACK 106 AUDIO
    TITLE "21:cjc171_15053"
    INDEX 01 02:24:45
  TRACK 107 AUDIO
    TITLE "0:"
    INDEX 01 02:27:63
  TRACK 108 AUDIO
    TITLE "22:cjc171_15054"
    INDEX 01 02:28:27
  TRACK 109 AUDIO
    TITLE "0:"
    INDEX 01 02:31:37
  TRACK 110 AUDIO
    TITLE "23:cjc171_15055"
    INDEX 01 02:31:64
  TRACK 111 AUDIO
    TITLE "0:"
    INDEX 01 02:34:74
  TRACK 112 AUDIO
    TITLE "19:cjc171_15056"
    INDEX 01 02:36:03
  TRACK 113 AUDIO
    TITLE "0:"
    INDEX 01 02:37:16
  TRACK 114 AUDIO
    TITLE "20:cjc171_15057"
    INDEX 01 02:37:57
  TRACK 115 AUDIO
    TITLE "0:"
    INDEX 01 02:41:02
  TRACK 116 AUDIO
    TITLE "21:cjc171_15058"
    INDEX 01 02:42:01
  TRACK 117 AUDIO
    TITLE "0:"
    INDEX 01 02:43:73
  TRACK 118 AUDIO
    TITLE "22:cjc171_15059"
    INDEX 01 02:44:39
  TRACK 119 AUDIO
    TITLE "0:"
    INDEX 01 02:47:06
  TRACK 120 AUDIO
    TITLE "23:cjc171_15060"
    INDEX 01 02:47:36
  TRACK 121 AUDIO
    TITLE "0:"
    INDEX 01 02:50:03
  TRACK 122 AUDIO
    TITLE "19:cjc171_15061"
    INDEX 01 02:51:10
  TRACK 123 AUDIO
    TITLE "0:"
    INDEX 01 02:52:39
  TRACK 124 AUDIO
    TITLE "20:cjc171_15062"
    INDEX 01 02:53:05
  TRACK 125 AUDIO
    TITLE "0:"
    INDEX 01 02:55:29
  TRACK 126 AUDIO
    TITLE "21:cjc171_15063"
    INDEX 01 02:56:31
  TRACK 127 AUDIO
    TITLE "0:"
    INDEX 01 02:58:51
  TRACK 128 AUDIO
    TITLE "22:cjc171_15064"
    INDEX 01 02:59:15
  TRACK 129 AUDIO
    TITLE "0:"
    INDEX 01 03:02:16
  TRACK 130 AUDIO
    TITLE "23:cjc171_15065"
    INDEX 01 03:02:43
  TRACK 131 AUDIO
    TITLE "0:"
    INDEX 01 03:05:45
  TRACK 132 AUDIO
    TITLE "19:cjc171_15066"
    INDEX 01 03:06:45
  TRACK 133 AUDIO
    TITLE "0:"
    INDEX 01 03:08:22
  TRACK 134 AUDIO
    TITLE "20:cjc171_15067"
    INDEX 01 03:08:61
  TRACK 135 AUDIO
    TITLE "0:"
    INDEX 01 03:10:06
  TRACK 136 AUDIO
    TITLE "21:cjc171_15068"
    INDEX 01 03:11:03
  TRACK 137 AUDIO
    TITLE "0:"
    INDEX 01 03:12:51
  TRACK 138 AUDIO
    TITLE "22:cjc171_15069"
    INDEX 01 03:13:14
  TRACK 139 AUDIO
    TITLE "0:"
    INDEX 01 03:15:42
  TRACK 140 AUDIO
    TITLE "23:cjc171_15070"
    INDEX 01 03:15:71
  TRACK 141 AUDIO
    TITLE "0:"
    INDEX 01 03:18:25
  TRACK 142 AUDIO
    TITLE "19:cjc171_15071"
    INDEX 01 03:19:32
  TRACK 143 AUDIO
    TITLE "0:"
    INDEX 01 03:20:45
  TRACK 144 AUDIO
    TITLE "20:cjc171_15072"
    INDEX 01 03:21:09
  TRACK 145 AUDIO
    TITLE "0:"
    INDEX 01 03:22:71
  TRACK 146 AUDIO
    TITLE "21:cjc171_15073"
    INDEX 01 03:23:69
  TRACK 147 AUDIO
    TITLE "0:"
    INDEX 01 03:26:28
  TRACK 148 AUDIO
    TITLE "22:cjc171_15074"
    INDEX 01 03:26:69
  TRACK 149 AUDIO
    TITLE "0:"
    INDEX 01 03:28:68
  TRACK 150 AUDIO
    TITLE "23:cjc171_15075"
    INDEX 01 03:29:24
  TRACK 151 AUDIO
    TITLE "0:"
    INDEX 01 03:31:23
  TRACK 152 AUDIO
    TITLE "19:cjc171_15076"
    INDEX 01 03:32:27
  TRACK 153 AUDIO
    TITLE "0:"
    INDEX 01 03:33:61
  TRACK 154 AUDIO
    TITLE "20:cjc171_15077"
    INDEX 01 03:34:28
  TRACK 155 AUDIO
    TITLE "0:"
    INDEX 01 03:36:05
  TRACK 156 AUDIO
    TITLE "21:cjc171_15078"
    INDEX 01 03:37:04
  TRACK 157 AUDIO
    TITLE "0:"
    INDEX 01 03:39:39
  TRACK 158 AUDIO
    TITLE "22:cjc171_15079"
    INDEX 01 03:40:05
  TRACK 159 AUDIO
    TITLE "0:"
    INDEX 01 03:43:25
  TRACK 160 AUDIO
    TITLE "23:cjc171_15080"
    INDEX 01 03:43:54
  TRACK 161 AUDIO
    TITLE "0:"
    INDEX 01 03:46:74
  TRACK 162 AUDIO
    TITLE "19:cjc171_15081"
    INDEX 01 03:48:04
  TRACK 163 AUDIO
    TITLE "0:"
    INDEX 01 03:49:23
  TRACK 164 AUDIO
    TITLE "20:cjc171_15082"
    INDEX 01 03:49:62
  TRACK 165 AUDIO
    TITLE "0:"
    INDEX 01 03:52:20
  TRACK 166 AUDIO
    TITLE "21:cjc171_15083"
    INDEX 01 03:53:19
  TRACK 167 AUDIO
    TITLE "0:"
    INDEX 01 03:55:65
  TRACK 168 AUDIO
    TITLE "22:cjc171_15084"
    INDEX 01 03:56:31
  TRACK 169 AUDIO
    TITLE "0:"
    INDEX 01 03:58:48
  TRACK 170 AUDIO
    TITLE "23:cjc171_15085"
    INDEX 01 03:59:04
  TRACK 171 AUDIO
    TITLE "0:"
    INDEX 01 04:01:21
  TRACK 172 AUDIO
    TITLE "19:cjc171_15086"
    INDEX 01 04:02:26
  TRACK 173 AUDIO
    TITLE "0:"
    INDEX 01 04:03:53
  TRACK 174 AUDIO
    TITLE "20:cjc171_15087"
    INDEX 01 04:04:17
  TRACK 175 AUDIO
    TITLE "0:"
    INDEX 01 04:07:19
  TRACK 176 AUDIO
    TITLE "21:cjc171_15088"
    INDEX 01 04:08:15
  TRACK 177 AUDIO
    TITLE "0:"
    INDEX 01 04:09:63
  TRACK 178 AUDIO
    TITLE "22:cjc171_15089"
    INDEX 01 04:10:29
  TRACK 179 AUDIO
    TITLE "0:"
    INDEX 01 04:12:28
  TRACK 180 AUDIO
    TITLE "23:cjc171_15090"
    INDEX 01 04:12:60
  TRACK 181 AUDIO
    TITLE "0:"
    INDEX 01 04:14:58
  TRACK 182 AUDIO
    TITLE "19:cjc171_15091"
    INDEX 01 04:15:64
  TRACK 183 AUDIO
    TITLE "0:"
    INDEX 01 04:17:06
  TRACK 184 AUDIO
    TITLE "20:cjc171_15092"
    INDEX 01 04:17:43
  TRACK 185 AUDIO
    TITLE "0:"
    INDEX 01 04:19:09
  TRACK 186 AUDIO
    TITLE "21:cjc171_15093"
    INDEX 01 04:20:08
  TRACK 187 AUDIO
    TITLE "0:"
    INDEX 01 04:23:14
  TRACK 188 AUDIO
    TITLE "22:cjc171_15094"
    INDEX 01 04:23:52
  TRACK 189 AUDIO
    TITLE "0:"
    INDEX 01 04:25:72
  TRACK 190 AUDIO
    TITLE "23:cjc171_15095"
    INDEX 01 04:26:26
  TRACK 191 AUDIO
    TITLE "0:"
    INDEX 01 04:28:47
  TRACK 192 AUDIO
    TITLE "19:cjc171_15096"
    INDEX 01 04:29:50
  TRACK 193 AUDIO
    TITLE "0:"
    INDEX 01 04:30:71
  TRACK 194 AUDIO
    TITLE "20:cjc171_15097"
    INDEX 01 04:31:31
  TRACK 195 AUDIO
    TITLE "0:"
    INDEX 01 04:32:66
  TRACK 196 AUDIO
    TITLE "21:cjc171_15098"
    INDEX 01 04:33:64
  TRACK 197 AUDIO
    TITLE "0:"
    INDEX 01 04:36:21
  TRACK 198 AUDIO
    TITLE "22:cjc171_15099"
    INDEX 01 04:36:52
  TRACK 199 AUDIO
    TITLE "0:"
    INDEX 01 04:39:11
  TRACK 200 AUDIO
    TITLE "23:cjc171_15100"
    INDEX 01 04:39:35
  TRACK 201 AUDIO
    TITLE "0:"
    INDEX 01 04:41:69
